<svg width="162" height="51" viewBox="0 0 162 51" fill="none" xmlns="http://www.w3.org/2000/svg">
<path d="M3.63 23.206C4.686 23.118 5.478 22.832 6.006 22.348C6.556 21.864 6.831 21.215 6.831 20.401C6.831 19.477 6.732 18.146 6.534 16.408C6.314 14.34 6.204 12.833 6.204 11.887C6.204 10.171 6.71 8.84 7.722 7.894C8.756 6.926 10.12 6.442 11.814 6.442H14.091V10.336H12.705C11.341 10.336 10.659 10.985 10.659 12.283C10.659 12.899 10.747 14.131 10.923 15.979C10.945 16.199 11 16.826 11.088 17.86C11.176 18.872 11.22 19.774 11.22 20.566C11.22 21.732 10.934 22.7 10.362 23.47C9.79 24.24 8.921 24.735 7.755 24.955V25.021C8.921 25.263 9.79 25.769 10.362 26.539C10.934 27.287 11.22 28.255 11.22 29.443C11.22 30.191 11.176 31.082 11.088 32.116C11 33.128 10.945 33.766 10.923 34.03C10.747 35.878 10.659 37.099 10.659 37.693C10.659 38.375 10.824 38.87 11.154 39.178C11.484 39.486 12.001 39.64 12.705 39.64H14.091V43.567H11.814C10.12 43.567 8.756 43.083 7.722 42.115C6.71 41.169 6.204 39.838 6.204 38.122C6.204 37.154 6.314 35.636 6.534 33.568C6.732 31.83 6.831 30.51 6.831 29.608C6.831 28.794 6.556 28.145 6.006 27.661C5.478 27.177 4.686 26.891 3.63 26.803V23.206ZM84.9026 26.803C83.8466 26.891 83.0436 27.177 82.4936 27.661C81.9656 28.145 81.7016 28.794 81.7016 29.608C81.7016 30.51 81.8006 31.83 81.9986 33.568C82.2186 35.636 82.3286 37.154 82.3286 38.122C82.3286 39.838 81.8116 41.169 80.7776 42.115C79.7656 43.083 78.4126 43.567 76.7186 43.567H74.4416V39.64H75.8276C76.5316 39.64 77.0486 39.486 77.3786 39.178C77.7086 38.87 77.8736 38.375 77.8736 37.693C77.8736 37.099 77.7856 35.878 77.6096 34.03C77.5876 33.766 77.5326 33.128 77.4446 32.116C77.3566 31.082 77.3126 30.191 77.3126 29.443C77.3126 28.255 77.5986 27.287 78.1706 26.539C78.7426 25.769 79.6116 25.263 80.7776 25.021V24.955C79.6116 24.735 78.7426 24.24 78.1706 23.47C77.5986 22.7 77.3126 21.732 77.3126 20.566C77.3126 19.774 77.3566 18.872 77.4446 17.86C77.5326 16.826 77.5876 16.199 77.6096 15.979C77.7856 14.131 77.8736 12.899 77.8736 12.283C77.8736 10.985 77.1916 10.336 75.8276 10.336H74.4416V6.442H76.7186C78.4126 6.442 79.7656 6.926 80.7776 7.894C81.8116 8.84 82.3286 10.171 82.3286 11.887C82.3286 12.833 82.2186 14.34 81.9986 16.408C81.8006 18.146 81.7016 19.477 81.7016 20.401C81.7016 21.215 81.9656 21.864 82.4936 22.348C83.0436 22.832 83.8466 23.118 84.9026 23.206V26.803Z" fill="#2196F3"/>
<path d="M17.5498 27.727C17.5498 25.813 17.8908 24.141 18.5728 22.711C19.2768 21.281 20.2228 20.181 21.4108 19.411C22.6208 18.641 23.9628 18.256 25.4368 18.256C26.7128 18.256 27.8128 18.509 28.7368 19.015C29.6608 19.521 30.3758 20.203 30.8818 21.061V18.487H37.3498V37H30.8818V34.426C30.3758 35.284 29.6498 35.966 28.7038 36.472C27.7798 36.978 26.6908 37.231 25.4368 37.231C23.9628 37.231 22.6208 36.846 21.4108 36.076C20.2228 35.306 19.2768 34.206 18.5728 32.776C17.8908 31.324 17.5498 29.641 17.5498 27.727ZM30.8818 27.727C30.8818 26.539 30.5518 25.604 29.8918 24.922C29.2538 24.24 28.4618 23.899 27.5158 23.899C26.5478 23.899 25.7448 24.24 25.1068 24.922C24.4688 25.582 24.1498 26.517 24.1498 27.727C24.1498 28.915 24.4688 29.861 25.1068 30.565C25.7448 31.247 26.5478 31.588 27.5158 31.588C28.4618 31.588 29.2538 31.247 29.8918 30.565C30.5518 29.883 30.8818 28.937 30.8818 27.727ZM47.5035 21.061C48.0095 20.203 48.7245 19.521 49.6485 19.015C50.5725 18.509 51.6615 18.256 52.9155 18.256C54.3895 18.256 55.7205 18.641 56.9085 19.411C58.1185 20.181 59.0645 21.281 59.7465 22.711C60.4505 24.141 60.8025 25.813 60.8025 27.727C60.8025 29.641 60.4505 31.324 59.7465 32.776C59.0645 34.206 58.1185 35.306 56.9085 36.076C55.7205 36.846 54.3895 37.231 52.9155 37.231C51.6615 37.231 50.5725 36.978 49.6485 36.472C48.7465 35.966 48.0315 35.284 47.5035 34.426V45.844H41.0355V18.487H47.5035V21.061ZM54.2355 27.727C54.2355 26.517 53.9055 25.582 53.2455 24.922C52.6075 24.24 51.8155 23.899 50.8695 23.899C49.9235 23.899 49.1205 24.24 48.4605 24.922C47.8225 25.604 47.5035 26.539 47.5035 27.727C47.5035 28.937 47.8225 29.883 48.4605 30.565C49.1205 31.247 49.9235 31.588 50.8695 31.588C51.8155 31.588 52.6075 31.247 53.2455 30.565C53.9055 29.861 54.2355 28.915 54.2355 27.727ZM66.7322 16.771C65.5882 16.771 64.6642 16.463 63.9602 15.847C63.2782 15.209 62.9372 14.417 62.9372 13.471C62.9372 12.503 63.2782 11.7 63.9602 11.062C64.6642 10.424 65.5882 10.105 66.7322 10.105C67.8542 10.105 68.7562 10.424 69.4382 11.062C70.1422 11.7 70.4942 12.503 70.4942 13.471C70.4942 14.417 70.1422 15.209 69.4382 15.847C68.7562 16.463 67.8542 16.771 66.7322 16.771ZM69.9332 18.487V37H63.4652V18.487H69.9332Z" fill="black"/>
<path d="M119.64 17.89C119.18 17.89 118.8 17.75 118.5 17.47C118.22 17.19 118.08 16.82 118.08 16.36C118.08 15.76 118.3 15.25 118.74 14.83C119.18 14.39 119.69 14.17 120.27 14.17C120.73 14.17 121.1 14.31 121.38 14.59C121.66 14.87 121.8 15.24 121.8 15.7C121.8 16.3 121.58 16.82 121.14 17.26C120.7 17.68 120.2 17.89 119.64 17.89ZM116.97 40.57C116.73 42.03 116.18 43.1 115.32 43.78C114.46 44.46 113.32 44.8 111.9 44.8H110.28L110.7 42.49H111.84C112.6 42.49 113.16 42.34 113.52 42.04C113.88 41.74 114.12 41.23 114.24 40.51L117.78 20.56H120.51L116.97 40.57ZM139.711 20.56L136.801 37H134.071L134.491 34.6C133.831 35.44 132.991 36.09 131.971 36.55C130.951 37.01 129.891 37.24 128.791 37.24C127.071 37.24 125.691 36.78 124.651 35.86C123.631 34.92 123.121 33.58 123.121 31.84C123.121 31.4 123.171 30.85 123.271 30.19L124.981 20.56H127.681L126.061 29.83C125.981 30.25 125.941 30.69 125.941 31.15C125.941 32.37 126.271 33.3 126.931 33.94C127.611 34.56 128.551 34.87 129.751 34.87C131.191 34.87 132.411 34.42 133.411 33.52C134.431 32.62 135.081 31.31 135.361 29.59V29.68L136.981 20.56H139.711ZM151.161 20.29C152.581 20.29 153.771 20.6 154.731 21.22C155.691 21.84 156.341 22.62 156.681 23.56L157.221 20.56H159.981L157.011 37.36C156.751 38.86 156.191 40.19 155.331 41.35C154.491 42.53 153.421 43.45 152.121 44.11C150.821 44.77 149.381 45.1 147.801 45.1C145.641 45.1 143.931 44.58 142.671 43.54C141.411 42.52 140.801 41.14 140.841 39.4H143.571C143.691 40.4 144.161 41.2 144.981 41.8C145.821 42.42 146.901 42.73 148.221 42.73C149.721 42.73 151.031 42.26 152.151 41.32C153.271 40.38 153.981 39.06 154.281 37.36L154.881 33.91C154.161 34.87 153.211 35.67 152.031 36.31C150.871 36.95 149.581 37.27 148.161 37.27C146.881 37.27 145.751 37 144.771 36.46C143.791 35.9 143.021 35.11 142.461 34.09C141.921 33.07 141.651 31.89 141.651 30.55C141.651 29.95 141.711 29.34 141.831 28.72C142.131 27.04 142.731 25.57 143.631 24.31C144.551 23.03 145.661 22.04 146.961 21.34C148.281 20.64 149.681 20.29 151.161 20.29ZM155.781 28.75C155.861 28.33 155.901 27.88 155.901 27.4C155.901 25.94 155.461 24.79 154.581 23.95C153.721 23.09 152.621 22.66 151.281 22.66C150.261 22.66 149.281 22.9 148.341 23.38C147.421 23.86 146.631 24.56 145.971 25.48C145.311 26.4 144.871 27.48 144.651 28.72C144.571 29.14 144.531 29.6 144.531 30.1C144.531 31.58 144.961 32.75 145.821 33.61C146.681 34.45 147.781 34.87 149.121 34.87C150.141 34.87 151.111 34.63 152.031 34.15C152.971 33.65 153.771 32.94 154.431 32.02C155.111 31.08 155.561 29.99 155.781 28.75Z" fill="#303030"/>
<path d="M102.22 41.835V43.0312C102.22 43.5781 102.164 44.0452 102.054 44.4326C101.943 44.82 101.784 45.1374 101.575 45.3848C101.367 45.6289 101.118 45.8096 100.828 45.9268C100.538 46.0407 100.216 46.0977 99.8613 46.0977C99.5781 46.0977 99.3145 46.0618 99.0703 45.9902C98.8262 45.9154 98.6064 45.8014 98.4111 45.6484C98.2191 45.4922 98.0531 45.2936 97.9131 45.0527C97.7764 44.8118 97.6706 44.5238 97.5957 44.1885C97.5241 43.8532 97.4883 43.4674 97.4883 43.0312V41.835C97.4883 41.2881 97.5436 40.8226 97.6543 40.4385C97.7682 40.0544 97.9294 39.7402 98.1377 39.4961C98.346 39.252 98.5951 39.0745 98.8848 38.9639C99.1745 38.8499 99.4967 38.793 99.8516 38.793C100.138 38.793 100.402 38.8288 100.643 38.9004C100.887 38.972 101.105 39.0843 101.297 39.2373C101.492 39.387 101.658 39.5824 101.795 39.8232C101.932 40.0609 102.036 40.3473 102.107 40.6826C102.182 41.0146 102.22 41.3988 102.22 41.835ZM100.931 43.207V41.6543C100.931 41.3809 100.914 41.1432 100.882 40.9414C100.853 40.7363 100.809 40.5622 100.75 40.4189C100.691 40.2757 100.618 40.1602 100.53 40.0723C100.442 39.9811 100.341 39.9144 100.228 39.8721C100.114 39.8298 99.9883 39.8086 99.8516 39.8086C99.6823 39.8086 99.5309 39.8428 99.3975 39.9111C99.264 39.9762 99.1517 40.0804 99.0605 40.2236C98.9694 40.3669 98.8994 40.5573 98.8506 40.7949C98.805 41.0293 98.7822 41.3158 98.7822 41.6543V43.207C98.7822 43.4805 98.7969 43.7197 98.8262 43.9248C98.8587 44.1299 98.9043 44.3057 98.9629 44.4521C99.0247 44.5986 99.098 44.7191 99.1826 44.8135C99.2705 44.9046 99.3714 44.973 99.4854 45.0186C99.5993 45.0609 99.7246 45.082 99.8613 45.082C100.034 45.082 100.185 45.0479 100.315 44.9795C100.449 44.9111 100.561 44.8037 100.652 44.6572C100.743 44.5075 100.812 44.3138 100.857 44.0762C100.906 43.8353 100.931 43.5456 100.931 43.207Z" fill="#303030"/>
<path d="M97.8008 31.5582L97.759 32.0229C96.893 38.8925 94.6517 42.2537 91.035 42.1065C88.9763 42.0227 87.9861 41.108 88.0645 39.3623C88.1255 38.0046 88.8029 37.352 90.0965 37.4046C91.2372 37.451 91.7816 38.0497 91.7299 39.2006C91.7102 39.6402 91.4754 40.0582 91.0256 40.4544C91.2823 40.6333 91.5498 40.7284 91.828 40.7397C93.4138 40.8042 94.2738 39.3429 94.408 36.3559L94.4552 33.443L94.4614 31.9081L94.4832 31.4232C92.4576 30.9133 90.8504 29.9281 89.6618 28.4677C88.4738 26.9943 87.9225 25.3072 88.0079 23.4063C88.0932 21.5055 88.8011 19.8631 90.1314 18.4793C91.4617 17.0955 93.1441 16.2507 95.1785 15.9448L95.2821 15.0357C95.9956 8.45788 98.2233 5.2451 101.965 5.39737C104.024 5.48115 105.014 6.39588 104.936 8.14157C104.875 9.49933 104.211 10.1525 102.945 10.1009C101.749 10.0523 101.176 9.47188 101.226 8.3598C101.249 7.85549 101.491 7.42491 101.953 7.06803C101.626 6.89927 101.358 6.81064 101.15 6.80215C99.5638 6.73762 98.7064 8.14069 98.5775 11.0114L98.5267 14.0018L98.5162 15.1673L98.4961 16.0798C100.509 16.5633 102.116 17.5485 103.318 19.0354C104.519 20.5093 105.078 22.1967 104.992 24.0975C104.907 25.9984 104.199 27.6343 102.87 29.0052C101.554 30.3766 99.8642 31.2276 97.8008 31.5582ZM94.4868 29.9465L94.4973 29.2474L94.5601 26.9181L94.8512 20.4397L95.0149 17.7259L95.028 17.4349C91.5207 18.2638 89.6954 20.2752 89.5519 23.4692C89.409 26.6502 91.054 28.8093 94.4868 29.9465ZM98.4925 17.5565L98.4898 18.081L98.44 20.5857L98.149 27.0642L97.9722 30.0689C101.481 29.2142 103.306 27.2028 103.448 24.0347C103.591 20.8537 101.939 18.6943 98.4925 17.5565Z" fill="#303030"/>
<path d="M109.277 5.99932C109.247 6.00361 109.157 6.01865 109.073 6.03154C108.143 6.18193 107.318 6.94033 107.071 7.87061C106.998 8.1499 106.978 8.66768 107.03 8.96631C107.116 9.46904 107.363 9.93096 107.743 10.3134C108.497 11.0653 109.677 11.263 110.646 10.7989C111.017 10.6228 111.151 10.5153 111.851 9.82354L112.5 9.18115L113.14 9.81279C113.881 10.5497 114.051 10.6808 114.464 10.8526C115.185 11.1513 116.073 11.0976 116.719 10.7194C117.048 10.5282 117.4 10.2038 117.587 9.91807C117.783 9.62158 117.927 9.24775 117.981 8.89971C118.017 8.67197 117.993 8.11982 117.94 7.92002C117.725 7.11221 117.177 6.48272 116.427 6.17764C115.75 5.90049 114.949 5.93057 114.298 6.25713C113.991 6.41182 113.834 6.54287 113.172 7.19385C112.816 7.54619 112.513 7.83408 112.5 7.83408C112.487 7.83408 112.184 7.54619 111.827 7.19385C111.419 6.79209 111.118 6.51494 111.017 6.44619C110.723 6.24639 110.416 6.11318 110.068 6.03799C109.917 6.00576 109.389 5.97998 109.277 5.99932ZM109.935 6.97471C110.126 7.02412 110.324 7.11221 110.474 7.21318C110.532 7.25186 110.859 7.56123 111.202 7.90283L111.825 8.52158L111.374 8.97061C110.596 9.7376 110.504 9.81924 110.281 9.92881C110.001 10.0663 109.855 10.0985 109.546 10.0985C109.234 10.0985 109.09 10.0663 108.807 9.92666C108.639 9.84287 108.57 9.79346 108.418 9.64092C108.141 9.36592 107.999 9.08877 107.943 8.71709C107.831 7.9458 108.362 7.17881 109.148 6.97686C109.372 6.91885 109.709 6.9167 109.935 6.97471ZM115.841 6.97471C116.711 7.19814 117.235 8.05322 117.022 8.90186C117.005 8.97061 116.945 9.11885 116.889 9.23057C116.805 9.40244 116.758 9.46475 116.595 9.63018C116.429 9.79346 116.367 9.84072 116.195 9.92451C115.909 10.0663 115.766 10.0985 115.454 10.0985C115.155 10.0985 115.003 10.0663 114.745 9.9417C114.507 9.82783 114.421 9.75479 113.755 9.09521L113.168 8.51729L113.752 7.9415C114.075 7.62354 114.386 7.3249 114.444 7.27549C114.584 7.16162 114.855 7.02842 115.057 6.97471C115.28 6.91885 115.617 6.9167 115.841 6.97471Z" fill="#303030"/>
</svg>
